PathFileType	4	(X/Y/Z)	/Users/itak/Documents/Research/Walk-IL/dataset/trc/00364_00011.trc
DataRate	CameraRate	NumFrames	NumMarkers	Units	OrigDataRate	OrigDataStartFrame	OrigNumFrames
100.000000	100.000000	4	56	mm	100.000000	114	306
Frame#	Time	RPSI			LPSI			L3			STRN			T10			C7			CLAV			RBAK			LBAK			LSHO			LUPA			LAEL			LAOL			LWTS			LWPS			LFRA			LIFD			LHPS			LHTS			RSHO			RUPA			RAEL			RAOL			RWTS			RWPS			RFRA			RIFD			RHTS			RHPS			RBHD			LFHD			RFHD			LBHD			LHIP			RHIP			RASI			LASI			LKNE			LTHI			LANK			LTIP			LTOE			LMT1			LMT5			LHEE			RKNE			RTHI			RANK			RTIP			RTOE			RMT1			RMT5			RHEE			*53			*54			*55			
		X1	Y1	Z1	X2	Y2	Z2	X3	Y3	Z3	X4	Y4	Z4	X5	Y5	Z5	X6	Y6	Z6	X7	Y7	Z7	X8	Y8	Z8	X9	Y9	Z9	X10	Y10	Z10	X11	Y11	Z11	X12	Y12	Z12	X13	Y13	Z13	X14	Y14	Z14	X15	Y15	Z15	X16	Y16	Z16	X17	Y17	Z17	X18	Y18	Z18	X19	Y19	Z19	X20	Y20	Z20	X21	Y21	Z21	X22	Y22	Z22	X23	Y23	Z23	X24	Y24	Z24	X25	Y25	Z25	X26	Y26	Z26	X27	Y27	Z27	X28	Y28	Z28	X29	Y29	Z29	X30	Y30	Z30	X31	Y31	Z31	X32	Y32	Z32	X33	Y33	Z33	X34	Y34	Z34	X35	Y35	Z35	X36	Y36	Z36	X37	Y37	Z37	X38	Y38	Z38	X39	Y39	Z39	X40	Y40	Z40	X41	Y41	Z41	X42	Y42	Z42	X43	Y43	Z43	X44	Y44	Z44	X45	Y45	Z45	X46	Y46	Z46	X47	Y47	Z47	X48	Y48	Z48	X49	Y49	Z49	X50	Y50	Z50	X51	Y51	Z51	X52	Y52	Z52	X53	Y53	Z53	X54	Y54	Z54	X55	Y55	Z55	X56	Y56	Z56	

115	1.14	143.8624877929688	941.642333984375	458.1385803222656	43.26870346069336	932.3056640625	378.0287780761719	102.3287124633789	993.8446044921875	429.3421325683594	211.5709075927734	1176.09033203125	221.4613189697266	99.3214111328125	1112.692260742188	439.4538879394531	104.8201675415039	1359.27392578125	386.4971618652344	182.3835144042969	1301.308837890625	252.5124969482422	145.5541229248047	1223.01318359375	464.3232421875	11.28293037414551	1320.481201171875	353.7300720214844	-2.807212829589844	1331.850830078125	252.4486083984375	-78.88217926025391	1220.28125	267.7597961425781	-115.7929458618164	1024.664794921875	300.1795654296875	-65.31491851806641	1018.552978515625	369.8603515625	-115.9564971923828	759.9716186523438	285.4519348144531	-175.7689514160156	775.543212890625	317.9902648925781	-142.8366241455078	925.4121704101562	313.0176696777344	-154.9285430908203	611.5342407226562	339.1759948730469	-186.4311676025391	712.9891357421875	346.3631896972656	-149.1607971191406	688.3986206054688	300.8055419921875	272.899169921875	1353.066040039062	413.0651550292969	327.6863098144531	1293.410278320312	450.7838134765625	449.7152404785156	1054.565185546875	455.2534790039062	368.2928771972656	1015.057495117188	425.120849609375	579.4729614257812	887.557861328125	313.3218994140625	602.8652954101562	866.3696899414062	383.5704345703125	497.50390625	1002.580871582031	437.4526062011719	671.4126586914062	743.9267578125	282.1910095214844	651.8385620117188	815.0135498046875	289.0263671875	647.7367553710938	800.69189453125	357.2146911621094	205.3504028320312	1562.973510742188	379.5612182617188	137.0001983642578	1581.944213867188	183.0457611083984	230.6032257080078	1586.619140625	220.3614654541016	64.19565582275391	1549.519653320312	351.7581176757812	22.87749671936035	877.3902587890625	243.0954437255859	277.2470092773438	887.3305053710938	474.9163818359375	318.3125915527344	908.9867553710938	368.0605773925781	149.594970703125	905.4483642578125	197.3591461181641	181.9588775634766	452.6693115234375	113.4435272216797	129.8435668945312	580.7013549804688	134.3869781494141	258.2981262207031	37.05532073974609	122.4721298217773	212.5666809082031	229.6675262451172	105.4276733398438	374.4093627929688	74.57758331298828	-53.06924438476562	393.9517822265625	49.09572219848633	21.83505821228027	283.6621398925781	50.36366653442383	0.8833004832267761	313.4287109375	35.03730392456055	174.4192962646484	235.4839172363281	448.5893249511719	539.564453125	310.9714660644531	684.1593627929688	463.2196044921875	53.43586730957031	116.5627899169922	748.8948974609375	200.1826171875	337.5932006835938	581.7659301757812	136.8997497558594	41.5111083984375	606.02392578125	74.13929748535156	46.97728729248047	603.8844604492188	124.1002578735352	50.19905471801758	712.7079467773438	-8.88733959197998	146.6567840576172	740.3282470703125	nan	nan	nan	nan	nan	nan	nan	nan	nan	
116	1.15	150.7682037353516	941.0339965820312	446.8792724609375	49.72265625	932.8995361328125	367.2639770507812	109.2187881469727	993.7139282226562	418.5729675292969	216.9266204833984	1176.694946289062	210.6511077880859	105.9757690429688	1112.622802734375	429.2633972167969	110.6071472167969	1359.396728515625	377.0013732910156	187.4747467041016	1301.7958984375	242.2988433837891	151.9277801513672	1222.923095703125	454.0038757324219	16.97884941101074	1320.375	344.6896362304688	2.123852729797363	1331.895751953125	243.3953704833984	-73.39250946044922	1219.897583007812	258.9389038085938	-108.9760131835938	1024.145751953125	291.8931579589844	-58.07750701904297	1018.244750976562	361.0748596191406	-108.6402053833008	759.25439453125	278.6098937988281	-168.3811187744141	774.95751953125	311.1743774414062	-135.8150024414062	924.9542236328125	305.2037963867188	-146.4500274658203	611.2645263671875	334.4932861328125	-178.3440093994141	712.5800170898438	340.5879516601562	-141.2261199951172	687.6486206054688	295.1366271972656	278.976806640625	1353.027954101562	402.5473022460938	333.7518005371094	1292.98974609375	439.82373046875	453.5954895019531	1052.989013671875	443.1654663085938	371.5134582519531	1014.39013671875	413.73583984375	580.6203002929688	885.161865234375	300.5095825195312	604.2396850585938	863.0000610351562	370.3811645507812	500.61669921875	1000.498474121094	425.1397399902344	670.5791625976562	740.99169921875	266.8663635253906	651.9472045898438	812.2123413085938	274.9134826660156	648.0288696289062	796.906005859375	342.9701232910156	210.228271484375	1563.046020507812	371.0328063964844	141.1536560058594	1583.209350585938	174.8925018310547	234.8298950195312	1587.988525390625	211.9308624267578	69.07436370849609	1549.198486328125	343.6065979003906	28.47291564941406	878.6951293945312	231.8745574951172	284.2312316894531	886.4141845703125	463.0477600097656	324.6547241210938	908.4224243164062	355.9471740722656	155.1678466796875	906.468994140625	186.1125335693359	188.127197265625	453.600830078125	101.9763031005859	135.3960113525391	581.3973999023438	123.8123779296875	259.5003662109375	38.44013595581055	120.9896850585938	217.7055206298828	230.0266876220703	97.52757263183594	379.7977600097656	67.881103515625	-54.53874969482422	397.1544494628906	43.68500137329102	21.62246131896973	287.4558410644531	48.59953308105469	-0.4843822717666626	314.2149353027344	35.85124206542969	173.3807067871094	244.0501556396484	448.9807739257812	528.2714233398438	318.3437805175781	683.4813232421875	450.7583618164062	58.8895378112793	122.5233764648438	745.5277709960938	208.2528228759766	339.1478271484375	573.126953125	137.3180236816406	41.36544418334961	606.6856689453125	76.21628570556641	47.66998672485352	603.587158203125	126.5837326049805	51.88784408569336	712.2319946289062	-1.92973256111145	154.6169891357422	735.8092651367188	nan	nan	nan	nan	nan	nan	nan	nan	nan	
117	1.16	157.5432586669922	940.6650390625	435.6524658203125	56.07374954223633	933.8369140625	356.614013671875	116.0160980224609	993.9307250976562	407.8067016601562	222.2560729980469	1177.564086914062	199.8030395507812	112.6105804443359	1112.830810546875	418.9933166503906	116.3972473144531	1359.786743164062	367.5341186523438	192.5374755859375	1302.528076171875	232.1062774658203	158.2951965332031	1223.131225585938	443.699951171875	22.65741157531738	1320.578247070312	335.6848449707031	7.072844505310059	1332.260375976562	234.398681640625	-67.87718963623047	1219.819458007812	250.0547485351562	-102.097900390625	1023.890686035156	283.2777404785156	-50.85418701171875	1018.173950195312	352.0274047851562	-101.0298767089844	758.8328857421875	271.1429748535156	-160.7458801269531	774.5606689453125	303.7023010253906	-128.6538238525391	924.724365234375	296.9260559082031	-137.4888305664062	611.1936645507812	328.9329528808594	-170.00830078125	712.2972412109375	334.0278930664062	-132.9077453613281	687.1426391601562	288.7183227539062	285.0541381835938	1353.244995117188	392.0048217773438	339.8132629394531	1292.856689453125	428.8399963378906	457.3064880371094	1051.65966796875	431.07421875	374.5085754394531	1014.008239746094	402.5289611816406	581.1766967773438	882.5131225585938	287.9488830566406	605.1757202148438	859.6155395507812	357.4638061523438	503.4671020507812	998.6043090820312	412.8416442871094	668.7593994140625	737.5686645507812	251.9915618896484	651.2252197265625	808.9608764648438	261.0960388183594	647.7041015625	792.9102783203125	329.0333251953125	215.0767364501953	1563.376220703125	362.4389343261719	145.2528686523438	1584.598754882812	166.6818542480469	239.015625	1589.537231445312	203.4277038574219	73.94163513183594	1549.087158203125	335.4111633300781	33.85823822021484	880.2391967773438	220.7813720703125	291.1118469238281	885.7772216796875	451.0820617675781	330.80224609375	908.1741943359375	343.6848449707031	160.4888610839844	907.716796875	174.885009765625	194.2452087402344	454.6036071777344	90.61051940917969	140.8862915039062	582.20654296875	113.5838394165039	260.5161743164062	39.81359481811523	119.5660247802734	222.434814453125	230.5418701171875	89.9749755859375	384.3454895019531	61.81399917602539	-55.76882171630859	399.7870788574219	39.04861068725586	21.49802398681641	290.635009765625	47.21967315673828	-1.713814616203308	314.7824401855469	36.7099723815918	172.4034271240234	253.3411865234375	449.4329833984375	516.0568237304688	325.81201171875	683.00439453125	437.8565673828125	65.15739440917969	128.9678802490234	741.4286499023438	217.1554718017578	340.8153686523438	563.5576171875	137.947998046875	40.9657096862793	607.2279663085938	78.58055877685547	48.35482406616211	603.0271606445312	129.2531433105469	53.89870452880859	711.4725952148438	6.061105728149414	163.0757751464844	730.2744140625	nan	nan	nan	nan	nan	nan	nan	nan	nan	
118	1.17	164.16162109375	940.5696411132812	424.5413818359375	62.29868316650391	935.0890502929688	346.1481628417969	122.6906280517578	994.4744873046875	397.1060180664062	227.4931030273438	1178.671752929688	188.95263671875	119.2206802368164	1113.272827148438	408.6897888183594	122.1963806152344	1360.406127929688	358.1377868652344	197.568603515625	1303.479125976562	221.9802551269531	164.6492462158203	1223.588989257812	433.472412109375	28.32510757446289	1321.0732421875	326.7522583007812	12.04938983917236	1332.944702148438	225.5061340332031	-62.34874725341797	1220.069580078125	241.1456298828125	-95.17462158203125	1023.916015625	274.3420715332031	-43.64760208129883	1018.356323242188	342.7426452636719	-93.14736175537109	758.7060546875	263.0184936523438	-152.8819122314453	774.356201171875	295.5514221191406	-121.3520736694336	924.7361450195312	288.1748352050781	-128.1042022705078	611.3128051757812	322.4624633789062	-161.4641418457031	712.1514282226562	326.6460876464844	-124.2391128540039	686.877197265625	281.5205383300781	291.1219482421875	1353.685424804688	381.4776000976562	345.8800964355469	1292.989379882812	417.8616027832031	460.8493041992188	1050.558959960938	418.9962768554688	377.3179321289062	1013.908142089844	391.4720458984375	581.2100830078125	879.6290893554688	275.6610107421875	605.7334594726562	856.2635498046875	344.8554382324219	506.0746765136719	996.8966064453125	400.5926513671875	666.03125	733.6678466796875	237.7014923095703	649.7450561523438	805.2655639648438	247.6474609375	646.8272705078125	788.7500610351562	315.4899597167969	219.9128723144531	1563.922729492188	353.8016052246094	149.3001556396484	1586.070434570312	158.4409332275391	243.1705017089844	1591.217895507812	194.8663482666016	78.81367492675781	1549.156005859375	327.2071838378906	39.01398849487305	881.9605102539062	209.9139251708984	297.83642578125	885.441162109375	439.0786437988281	336.7164916992188	908.2554321289062	331.3587646484375	165.5230560302734	909.1622924804688	163.7360382080078	200.1906433105469	455.6049194335938	79.56869506835938	146.3291168212891	583.1561279296875	103.6153106689453	261.3915405273438	41.09010696411133	118.2831192016602	226.7057189941406	231.0645141601562	83.02838134765625	387.9813537597656	56.4237060546875	-56.76779937744141	401.8655700683594	35.18937683105469	21.43072700500488	293.157958984375	46.15552139282227	-2.789175033569336	315.1986083984375	37.5213737487793	171.5305786132812	263.3800048828125	449.8569641113281	502.8836975097656	333.35888671875	682.75537109375	424.5829467773438	72.32676696777344	135.9084625244141	736.4962158203125	226.9028625488281	342.5062255859375	552.96875	138.8720703125	40.25069046020508	607.5027465820312	81.23899078369141	49.11653137207031	602.0767822265625	132.2056427001953	56.41629028320312	710.2388305664062	15.14683532714844	172.0161437988281	723.6419067382812	nan	nan	nan	nan	nan	nan	nan	nan	nan	
